<svg width="179" height="50" viewBox="0 0 179 50" fill="none" xmlns="http://www.w3.org/2000/svg">
<path d="M164.629 16.3636H167.699V21.0746L167.512 23.1605H167.699C168.027 22.6136 168.496 22.1683 169.105 21.8246C169.73 21.4652 170.426 21.2855 171.191 21.2855C172.676 21.2855 173.77 21.723 174.473 22.598C175.191 23.473 175.551 24.6683 175.551 26.184V33.1449H172.48V26.559C172.48 25.7621 172.293 25.1605 171.918 24.7543C171.543 24.3324 171.02 24.1215 170.348 24.1215C169.926 24.1215 169.551 24.2152 169.223 24.4027C168.895 24.5746 168.613 24.8168 168.379 25.1293C168.16 25.4418 167.988 25.809 167.863 26.2308C167.754 26.6371 167.699 27.0746 167.699 27.5433V33.1449H164.629V16.3636Z" fill="white"/>
<path d="M163.459 30.2152C162.959 31.184 162.256 31.9808 161.35 32.6058C160.459 33.2152 159.342 33.5199 157.998 33.5199C157.107 33.5199 156.287 33.3715 155.537 33.0746C154.803 32.7621 154.162 32.3324 153.615 31.7855C153.084 31.2386 152.662 30.598 152.35 29.8636C152.053 29.1136 151.904 28.2933 151.904 27.4027C151.904 26.5121 152.053 25.6918 152.35 24.9418C152.662 24.1918 153.084 23.5511 153.615 23.0199C154.162 22.473 154.803 22.0511 155.537 21.7543C156.287 21.4418 157.107 21.2855 157.998 21.2855C159.326 21.2855 160.443 21.5902 161.35 22.1996C162.256 22.809 162.92 23.598 163.342 24.5668L160.529 25.7386C160.264 25.2074 159.92 24.809 159.498 24.5433C159.092 24.2621 158.576 24.1215 157.951 24.1215C157.545 24.1215 157.162 24.1996 156.803 24.3558C156.443 24.5121 156.123 24.7308 155.842 25.0121C155.576 25.2933 155.365 25.6371 155.209 26.0433C155.053 26.4496 154.975 26.9027 154.975 27.4027C154.975 27.9027 155.053 28.3558 155.209 28.7621C155.365 29.1683 155.576 29.5121 155.842 29.7933C156.123 30.0746 156.443 30.2933 156.803 30.4496C157.162 30.6058 157.545 30.684 157.951 30.684C158.592 30.684 159.131 30.5433 159.568 30.2621C160.021 29.9652 160.381 29.5433 160.646 28.9965L163.459 30.2152Z" fill="white"/>
<path d="M151.001 30.3793C150.47 31.3168 149.751 32.0746 148.845 32.6527C147.954 33.2308 146.86 33.5199 145.563 33.5199C144.688 33.5199 143.876 33.3715 143.126 33.0746C142.392 32.7621 141.751 32.3324 141.204 31.7855C140.657 31.2386 140.228 30.598 139.915 29.8636C139.618 29.1136 139.47 28.2933 139.47 27.4027C139.47 26.5746 139.618 25.7933 139.915 25.059C140.212 24.309 140.626 23.6605 141.157 23.1136C141.688 22.5511 142.313 22.1058 143.032 21.7777C143.767 21.4496 144.571 21.2855 145.446 21.2855C146.368 21.2855 147.188 21.4418 147.907 21.7543C148.626 22.0511 149.228 22.473 149.712 23.0199C150.196 23.5511 150.563 24.184 150.813 24.9183C151.063 25.6527 151.188 26.4496 151.188 27.309C151.188 27.4183 151.188 27.5121 151.188 27.5902C151.173 27.684 151.165 27.7699 151.165 27.848C151.149 27.9261 151.142 28.0121 151.142 28.1058H142.493C142.556 28.5746 142.681 28.9808 142.868 29.3246C143.071 29.6527 143.313 29.934 143.595 30.1683C143.892 30.3871 144.212 30.5511 144.556 30.6605C144.899 30.7543 145.251 30.8011 145.61 30.8011C146.313 30.8011 146.892 30.6449 147.345 30.3324C147.813 30.0043 148.181 29.598 148.446 29.1136L151.001 30.3793ZM148.212 25.9261C148.196 25.723 148.126 25.4965 148.001 25.2465C147.892 24.9965 147.72 24.7621 147.485 24.5433C147.267 24.3246 146.985 24.1449 146.642 24.0043C146.313 23.8636 145.915 23.7933 145.446 23.7933C144.79 23.7933 144.212 23.9808 143.712 24.3558C143.212 24.7308 142.86 25.2543 142.657 25.9261H148.212Z" fill="white"/>
<path d="M132.979 33.1449V19.3636H128.291V16.3636H140.83V19.3636H136.143V33.1449H132.979Z" fill="white"/>
<path d="M127.596 30.3793C127.064 31.3168 126.346 32.0746 125.439 32.6527C124.549 33.2308 123.455 33.5199 122.158 33.5199C121.283 33.5199 120.471 33.3715 119.721 33.0746C118.986 32.7621 118.346 32.3324 117.799 31.7855C117.252 31.2386 116.822 30.598 116.51 29.8636C116.213 29.1136 116.064 28.2933 116.064 27.4027C116.064 26.5746 116.213 25.7933 116.51 25.059C116.807 24.309 117.221 23.6605 117.752 23.1136C118.283 22.5511 118.908 22.1058 119.627 21.7777C120.361 21.4496 121.166 21.2855 122.041 21.2855C122.963 21.2855 123.783 21.4418 124.502 21.7543C125.221 22.0511 125.822 22.473 126.307 23.0199C126.791 23.5511 127.158 24.184 127.408 24.9183C127.658 25.6527 127.783 26.4496 127.783 27.309C127.783 27.4183 127.783 27.5121 127.783 27.5902C127.768 27.684 127.76 27.7699 127.76 27.848C127.744 27.9261 127.736 28.0121 127.736 28.1058H119.088C119.15 28.5746 119.275 28.9808 119.463 29.3246C119.666 29.6527 119.908 29.934 120.189 30.1683C120.486 30.3871 120.807 30.5511 121.15 30.6605C121.494 30.7543 121.846 30.8011 122.205 30.8011C122.908 30.8011 123.486 30.6449 123.939 30.3324C124.408 30.0043 124.775 29.598 125.041 29.1136L127.596 30.3793ZM124.807 25.9261C124.791 25.723 124.721 25.4965 124.596 25.2465C124.486 24.9965 124.314 24.7621 124.08 24.5433C123.861 24.3246 123.58 24.1449 123.236 24.0043C122.908 23.8636 122.51 23.7933 122.041 23.7933C121.385 23.7933 120.807 23.9808 120.307 24.3558C119.807 24.7308 119.455 25.2543 119.252 25.9261H124.807Z" fill="white"/>
<path d="M108.59 21.6605H111.473V23.2543H111.66C111.801 22.973 111.988 22.7152 112.223 22.4808C112.457 22.2465 112.715 22.0433 112.996 21.8715C113.293 21.6996 113.605 21.5668 113.934 21.473C114.277 21.3793 114.613 21.3324 114.941 21.3324C115.348 21.3324 115.691 21.3715 115.973 21.4496C116.27 21.5277 116.52 21.6293 116.723 21.7543L115.902 24.5433C115.715 24.4496 115.504 24.3793 115.27 24.3324C115.051 24.2699 114.777 24.2386 114.449 24.2386C114.027 24.2386 113.645 24.3246 113.301 24.4965C112.957 24.6527 112.66 24.8793 112.41 25.1761C112.176 25.473 111.988 25.8246 111.848 26.2308C111.723 26.6215 111.66 27.0511 111.66 27.5199V33.1449H108.59V21.6605Z" fill="white"/>
<path d="M103.779 31.6449H103.592C103.232 32.223 102.748 32.684 102.139 33.0277C101.529 33.3558 100.834 33.5199 100.053 33.5199C98.5996 33.5199 97.5137 33.0746 96.7949 32.184C96.0918 31.2933 95.7402 30.1058 95.7402 28.6215V21.6605H98.8105V28.2465C98.8105 29.0746 98.9902 29.6918 99.3496 30.098C99.7246 30.4886 100.264 30.684 100.967 30.684C101.389 30.684 101.756 30.598 102.068 30.4261C102.396 30.2386 102.67 29.9965 102.889 29.6996C103.123 29.3871 103.295 29.0277 103.404 28.6215C103.529 28.1996 103.592 27.7543 103.592 27.2855V21.6605H106.662V33.1449H103.779V31.6449Z" fill="white"/>
<path d="M88.3955 24.2855H86.3799V21.6605H88.3955V18.1449H91.4658V21.6605H94.2783V24.2855H91.4658V28.7387C91.4658 29.0043 91.4893 29.2543 91.5361 29.4886C91.5986 29.7074 91.708 29.8949 91.8643 30.0512C92.083 30.3012 92.3955 30.4262 92.8018 30.4262C93.0674 30.4262 93.2783 30.4027 93.4346 30.3558C93.5908 30.2933 93.7393 30.2152 93.8799 30.1215L94.7471 32.8168C94.3877 32.9887 93.9971 33.1137 93.5752 33.1918C93.1689 33.2855 92.7158 33.3324 92.2158 33.3324C91.6377 33.3324 91.1143 33.2465 90.6455 33.0746C90.1924 32.8871 89.8096 32.6371 89.4971 32.3246C88.7627 31.6215 88.3955 30.6215 88.3955 29.3246V24.2855Z" fill="white"/>
<path d="M82.2061 31.6449H82.0186C81.6592 32.223 81.1748 32.684 80.5654 33.0277C79.9561 33.3558 79.2607 33.5199 78.4795 33.5199C77.0264 33.5199 75.9404 33.0746 75.2217 32.184C74.5186 31.2933 74.167 30.1058 74.167 28.6215V21.6605H77.2373V28.2465C77.2373 29.0746 77.417 29.6918 77.7764 30.098C78.1514 30.4886 78.6904 30.684 79.3936 30.684C79.8154 30.684 80.1826 30.598 80.4951 30.4261C80.8232 30.2386 81.0967 29.9965 81.3154 29.6996C81.5498 29.3871 81.7217 29.0277 81.8311 28.6215C81.9561 28.1996 82.0186 27.7543 82.0186 27.2855V21.6605H85.0889V33.1449H82.2061V31.6449Z" fill="white"/>
<path d="M62.7275 16.3636H73.3682V19.3636H65.8916V23.4418H72.6182V26.4418H65.8916V33.1449H62.7275V16.3636Z" fill="white"/>
<path d="M33.334 50V41.6666C37.9451 41.6666 41.6673 37.9444 41.6673 33.3333H50.0007C50.0007 42.5555 42.5284 50 33.334 50Z" fill="#FFD11A"/>
<path d="M33.3337 50V41.6666C28.7225 41.6666 25.0003 37.9444 25.0003 33.3333H16.667C16.667 42.5555 24.1392 50 33.3337 50Z" fill="#FFD11A"/>
<path d="M0 33.3334H8.33333C8.33333 37.9445 12.0556 41.6667 16.6667 41.6667V50C7.47222 50 0 42.5556 0 33.3334Z" fill="#FFD11A"/>
<path d="M0 33.3334H8.33333C8.33333 28.7222 12.0556 25 16.6667 25V16.6667C7.47222 16.6667 0 24.1389 0 33.3334Z" fill="#FFD11A"/>
<path d="M16.6667 0V8.33333C12.0556 8.33333 8.33333 12.0556 8.33333 16.6667H0C0 7.47222 7.47222 0 16.6667 0Z" fill="#FFD11A"/>
<path d="M16.667 0V8.33333C21.2781 8.33333 25.0003 12.0556 25.0003 16.6667H33.3337C33.3337 7.47222 25.8614 0 16.667 0Z" fill="#FFD11A"/>
<path d="M49.9997 16.6667H41.6663C41.6663 12.0556 37.9441 8.33333 33.333 8.33333V0C42.5275 0 49.9997 7.47222 49.9997 16.6667Z" fill="#FFD11A"/>
<path d="M49.9997 16.6667H41.6663C41.6663 21.2778 37.9441 25 33.333 25V33.3334C42.5275 33.3334 49.9997 25.8889 49.9997 16.6667Z" fill="#FFD11A"/>
</svg>
